<?xml version="1.0" encoding="UTF-8"?>
<svg version="1.1" xmlns="http://www.w3.org/2000/svg" width="48" height="48">
<path d="M0 0 C1.98 0 3.96 0 6 0 C6 0.66 6 1.32 6 2 C10.29 2 14.58 2 19 2 C19 15.2 19 28.4 19 42 C8.44 42 -2.12 42 -13 42 C-13 28.8 -13 15.6 -13 2 C-8.71 2 -4.42 2 0 2 C0 1.34 0 0.68 0 0 Z " fill="#EFEFEF" transform="translate(21,2)"/>
<path d="M0 0 C2.97 0 5.94 0 9 0 C9 0.66 9 1.32 9 2 C6.69 2 4.38 2 2 2 C2 13.88 2 25.76 2 38 C11.24 38 20.48 38 30 38 C30 26.12 30 14.24 30 2 C27.69 2 25.38 2 23 2 C23 1.34 23 0.68 23 0 C25.97 0 28.94 0 32 0 C32 13.2 32 26.4 32 40 C21.44 40 10.88 40 0 40 C0 26.8 0 13.6 0 0 Z " fill="#B96A33" transform="translate(8,4)"/>
<path d="M0 0 C1.670625 0.061875 1.670625 0.061875 3.375 0.125 C4.9297669 3.23453379 4.66144437 5.68766761 4.375 9.125 C2.375 12.5625 2.375 12.5625 0.375 15.125 C-2.625 14.125 -2.625 14.125 -4.3125 12 C-5.92311491 8.47198639 -5.98715469 5.96383977 -5.625 2.125 C-3.625 0.125 -3.625 0.125 0 0 Z " fill="#E8B12E" transform="translate(24.625,14.875)"/>
<path d="M0 0 C1.98 0 3.96 0 6 0 C6 0.66 6 1.32 6 2 C7.32 2 8.64 2 10 2 C10 3.65 10 5.3 10 7 C5.38 7 0.76 7 -4 7 C-4 5.35 -4 3.7 -4 2 C-2.68 2 -1.36 2 0 2 C0 1.34 0 0.68 0 0 Z " fill="#B7C0CA" transform="translate(21,2)"/>
<path d="M0 0 C2.00451121 0.30503431 4.00448218 0.64080679 6 1 C6.721875 0.79375 7.44375 0.5875 8.1875 0.375 C9.0846875 0.189375 9.0846875 0.189375 10 0 C11.75 1.25 11.75 1.25 13 3 C13 3.99 13 4.98 13 6 C7.72 6 2.44 6 -3 6 C-2 2 -2 2 0 0 Z " fill="#1693DE" transform="translate(19,28)"/>
<path d="M0 0 C1.670625 0.061875 1.670625 0.061875 3.375 0.125 C4.72939668 2.83379335 4.44001451 5.13433268 4.375 8.125 C3.715 6.805 3.055 5.485 2.375 4.125 C0.395 4.125 -1.585 4.125 -3.625 4.125 C-4.285 5.445 -4.945 6.765 -5.625 8.125 C-5.75 5.25 -5.75 5.25 -5.625 2.125 C-3.625 0.125 -3.625 0.125 0 0 Z " fill="#C26C26" transform="translate(24.625,14.875)"/>
<path d="M0 0 C1.65 0 3.3 0 5 0 C5.33 1.65 5.66 3.3 6 5 C4.34385343 5.38218767 2.67542976 5.71395102 1 6 C0 5 0 5 -0.0625 2.4375 C-0.041875 1.633125 -0.02125 0.82875 0 0 Z " fill="#F9C543" transform="translate(21,19)"/>
<path d="M0 0 C1.5159375 0.309375 1.5159375 0.309375 3.0625 0.625 C5.33900745 0.2672386 5.33900745 0.2672386 7.0625 -0.375 C7.3925 0.285 7.7225 0.945 8.0625 1.625 C5.53774538 2.88737731 3.75049534 2.72356404 0.9375 2.6875 C0.02742188 2.67847656 -0.88265625 2.66945313 -1.8203125 2.66015625 C-2.51898437 2.64855469 -3.21765625 2.63695312 -3.9375 2.625 C-4.2675 3.615 -4.5975 4.605 -4.9375 5.625 C-5.2675 4.635 -5.5975 3.645 -5.9375 2.625 C-3.97715857 -0.09769643 -3.43094093 -0.43799246 0 0 Z " fill="#2DAAE4" transform="translate(21.9375,28.375)"/>
<path d="M0 0 C1.65 0 3.3 0 5 0 C4.67 1.32 4.34 2.64 4 4 C2.8553125 4.2165625 2.8553125 4.2165625 1.6875 4.4375 C-1.08172908 4.9632594 -1.08172908 4.9632594 -4 6 C-4 4.68 -4 3.36 -4 2 C-2.68 2 -1.36 2 0 2 C0 1.34 0 0.68 0 0 Z " fill="#A8AEB7" transform="translate(21,2)"/>
</svg>
